<?xml version="1.0" encoding="utf-8"?>
<!DOCTYPE svg PUBLIC "-//W3C//DTD SVG 1.1//EN" "http://www.w3.org/Graphics/SVG/1.1/DTD/svg11.dtd">
<svg version="1.1" 
	xmlns="http://www.w3.org/2000/svg" 
	xmlns:xlink="http://www.w3.org/1999/xlink" xml:space="preserve" aria-hidden="true" focusable="false" style="width:0;height:0;position:absolute;">
	<symbol id="world" viewBox="0 0 64 64">
		<path d="M32.001-0.113c-8.579,0-16.644,3.34-22.709,9.406c-6.066,6.066-9.405,14.13-9.404,22.708c0,8.578,3.34,16.585,9.404,22.651		C15.357,60.717,23.421,64,31.999,64c0.001,0,0.002,0,0.002,0h0.003c17.706,0,32.11-14.351,32.109-32.057		c0.001-8.578-3.34-16.614-9.405-22.68C48.644,3.199,40.579-0.113,32.001-0.113z M54.691,12.212		c-0.865,1.239-3.196,3.974-7.954,6.067c-2.694-7.871-7.166-13.263-9.865-15.995c6.192,1.001,11.9,3.901,16.422,8.422		C53.781,11.193,54.242,11.698,54.691,12.212z M33.551,62.074c-0.183,0.009-0.367,0.008-0.551,0.014V43.017		c4.938,0.098,8.832,0.9,11.838,1.957C41.335,55.154,34.691,61.107,33.551,62.074z M19.161,44.973		c3.06-1.08,6.947-1.861,11.839-1.957v19.073c-0.184-0.006-0.369-0.006-0.552-0.016C29.305,61.104,22.663,55.15,19.161,44.973z		 M30.448,1.927c0.183-0.009,0.368-0.01,0.552-0.016v19.072c-4.938-0.098-8.832-0.9-11.838-1.957		C22.664,8.85,29.303,2.897,30.448,1.927z M44.839,19.027c-3.06,1.08-6.947,1.861-11.839,1.957V1.911		c0.184,0.006,0.369,0.006,0.552,0.016C34.696,2.896,41.337,8.851,44.839,19.027z M33,22.983c5.105-0.094,9.197-0.897,12.445-2.027		c0.87,3.02,1.443,6.375,1.533,10.043H33V22.983z M31,22.983V31H17.021c0.09-3.669,0.663-7.023,1.533-10.043		C21.803,22.086,25.895,22.889,31,22.983z M15.021,31H1.912c0.203-6.287,2.322-12.238,6.085-17.183		c1.224,1.62,3.836,4.343,8.651,6.406C15.719,23.444,15.111,27.043,15.021,31z M15.021,33c0.09,3.957,0.697,7.556,1.627,10.777		c-4.815,2.063-7.428,4.786-8.651,6.406C4.235,45.238,2.115,39.287,1.912,33H15.021z M17.021,33H31v8.017		c-5.105,0.094-9.197,0.897-12.445,2.027C17.685,40.023,17.111,36.669,17.021,33z M33,41.017V33h13.979		c-0.09,3.669-0.663,7.023-1.533,10.043C42.197,41.914,38.105,41.111,33,41.017z M48.979,33h13.109		c-0.211,6.435-2.445,12.365-6.094,17.171c-1.229-1.622-3.84-4.336-8.643-6.394C48.281,40.556,48.889,36.957,48.979,33z M48.979,31		c-0.09-3.957-0.697-7.556-1.627-10.777c4.815-2.063,7.428-4.786,8.651-6.406c3.762,4.945,5.882,10.896,6.086,17.184H48.979z		 M27.127,2.284c-2.699,2.732-7.17,8.125-9.865,15.997c-1.497-0.655-2.722-1.357-3.698-2.021c-2.351-1.597-3.651-3.189-4.251-4.052		c0.448-0.512,0.908-1.016,1.394-1.501C15.228,6.185,20.936,3.286,27.127,2.284z M9.309,51.788c0.865-1.238,3.196-3.974,7.954-6.067		c2.695,7.871,7.166,13.263,9.865,15.996c-6.191-1.001-11.9-3.901-16.422-8.422C10.219,52.808,9.758,52.302,9.309,51.788z		 M32.004,63L32.004,63v0.113V63z M36.876,61.713c2.699-2.733,7.168-8.125,9.862-15.993c1.497,0.655,2.722,1.357,3.698,2.021		c2.34,1.589,3.639,3.175,4.242,4.039C50.169,56.943,43.933,60.559,36.876,61.713z"/>
	</symbol>
	<symbol id="compass" viewBox="0 0 64 64">
		<path d="M32,64.292c7.824,0,15.18-3.047,20.713-8.581c5.533-5.532,8.58-12.888,8.58-20.712s-3.047-15.18-8.58-20.712		c-4.094-4.094-9.188-6.823-14.729-7.968C37.99,6.214,38,6.107,38,6c0-3.309-2.691-6-6-6s-6,2.691-6,6		c0,0.107,0.01,0.213,0.016,0.32c-5.542,1.145-10.635,3.874-14.729,7.968C5.754,19.82,2.708,27.176,2.708,35		s3.047,15.18,8.58,20.712C16.819,61.245,24.175,64.292,32,64.292z M32,2c2.2,0,3.989,1.785,3.998,3.983		C34.684,5.805,33.35,5.708,32,5.708s-2.684,0.097-3.998,0.275C28.011,3.785,29.8,2,32,2z M12.701,15.702		C17.619,10.784,24.085,7.979,31,7.732V12h2V7.732c6.915,0.248,13.38,3.052,18.299,7.97C56.217,20.62,59.021,27.086,59.268,34H55v2		h4.268c-0.248,6.914-3.051,13.38-7.969,18.298C46.38,59.216,39.915,62.021,33,62.268V58h-2v4.268		c-6.915-0.248-13.381-3.052-18.299-7.97C7.783,49.38,4.979,42.914,4.732,36H9v-2H4.732C4.979,27.086,7.783,20.62,12.701,15.702z"/>
		<path d="M37.362,40.932l0.56-0.544l8-19l-1.31-1.31l-19,8l-0.544,0.56l-7,18l1.294,1.294L37.362,40.932z M36.655,38.241		l-8.896-8.896l15.367-6.471L36.655,38.241z M26.376,30.791l8.833,8.833l-14.454,5.621L26.376,30.791z"/>
	</symbol>
	<symbol id="heart" viewBox="0 0 64 64">
		<path d="M48,4c-7.357,0-13.639,4.146-16,9.929C29.639,8.146,23.357,4,16,4C5.985,4,0,12.644,0,21		c0,8.589,5.326,17.755,15.83,27.242c7.738,6.989,15.59,11.577,15.668,11.623L32,60.156l0.502-0.291		c0.079-0.046,7.93-4.634,15.668-11.623C58.674,38.755,64,29.589,64,21C64,12.644,58.015,4,48,4z M32,57.833		C28.031,55.41,2,38.828,2,21C2,13.627,7.237,6,16,6c7.214,0,15,4.971,15,13h2c0-8.029,7.786-13,15-13c8.763,0,14,7.627,14,15		C62,38.818,35.968,55.409,32,57.833z"/>
	</symbol>
	<symbol id="map" viewBox="0 0 64 64">
		<path d="M22.009,3.927L0,12.311v48.14l21.991-8.377l20,8L64,51.689V3.549l-21.991,8.377L22.009,3.927z M23,6.477l18,7.2v43.846		l-18-7.2V6.477z M2,13.689l19-7.238v43.86L2,57.549V13.689z M62,50.311l-19,7.238v-43.86l19-7.238V50.311z"/>
	</symbol>
</svg>